<svg viewBox="0 0 720 374" role="img" aria-label="Two 40-node graphs side by side. The edge-edit run starts from an empty graph and ends with 89 edges, evolved to spread an epidemic as widely as possible.">
  <g style="color:var(--border-firm)">
  <text x="170" y="16" class="d-text-acc" text-anchor="middle">generation 0 — an empty base graph</text>

    <circle cx="170.0" cy="32.0" r="3.5" class="d-fill-acc"/><circle cx="170.0" cy="32.0" r="3.5" class="d-stroke" stroke-width="0.8"/>
    <circle cx="192.5" cy="33.8" r="3.5" class="d-fill-acc"/><circle cx="192.5" cy="33.8" r="3.5" class="d-stroke" stroke-width="0.8"/>
    <circle cx="214.5" cy="39.0" r="3.5" class="d-fill-acc"/><circle cx="214.5" cy="39.0" r="3.5" class="d-stroke" stroke-width="0.8"/>
    <circle cx="235.4" cy="47.7" r="3.5" class="d-fill-acc"/><circle cx="235.4" cy="47.7" r="3.5" class="d-stroke" stroke-width="0.8"/>
    <circle cx="254.6" cy="59.5" r="3.5" class="d-fill-acc"/><circle cx="254.6" cy="59.5" r="3.5" class="d-stroke" stroke-width="0.8"/>
    <circle cx="271.8" cy="74.2" r="3.5" class="d-fill-acc"/><circle cx="271.8" cy="74.2" r="3.5" class="d-stroke" stroke-width="0.8"/>
    <circle cx="286.5" cy="91.4" r="3.5" class="d-fill-acc"/><circle cx="286.5" cy="91.4" r="3.5" class="d-stroke" stroke-width="0.8"/>
    <circle cx="298.3" cy="110.6" r="3.5" class="d-fill-acc"/><circle cx="298.3" cy="110.6" r="3.5" class="d-stroke" stroke-width="0.8"/>
    <circle cx="307.0" cy="131.5" r="3.5" class="d-fill-acc"/><circle cx="307.0" cy="131.5" r="3.5" class="d-stroke" stroke-width="0.8"/>
    <circle cx="312.2" cy="153.5" r="3.5" class="d-fill-acc"/><circle cx="312.2" cy="153.5" r="3.5" class="d-stroke" stroke-width="0.8"/>
    <circle cx="314.0" cy="176.0" r="3.5" class="d-fill-acc"/><circle cx="314.0" cy="176.0" r="3.5" class="d-stroke" stroke-width="0.8"/>
    <circle cx="312.2" cy="198.5" r="3.5" class="d-fill-acc"/><circle cx="312.2" cy="198.5" r="3.5" class="d-stroke" stroke-width="0.8"/>
    <circle cx="307.0" cy="220.5" r="3.5" class="d-fill-acc"/><circle cx="307.0" cy="220.5" r="3.5" class="d-stroke" stroke-width="0.8"/>
    <circle cx="298.3" cy="241.4" r="3.5" class="d-fill-acc"/><circle cx="298.3" cy="241.4" r="3.5" class="d-stroke" stroke-width="0.8"/>
    <circle cx="286.5" cy="260.6" r="3.5" class="d-fill-acc"/><circle cx="286.5" cy="260.6" r="3.5" class="d-stroke" stroke-width="0.8"/>
    <circle cx="271.8" cy="277.8" r="3.5" class="d-fill-acc"/><circle cx="271.8" cy="277.8" r="3.5" class="d-stroke" stroke-width="0.8"/>
    <circle cx="254.6" cy="292.5" r="3.5" class="d-fill-acc"/><circle cx="254.6" cy="292.5" r="3.5" class="d-stroke" stroke-width="0.8"/>
    <circle cx="235.4" cy="304.3" r="3.5" class="d-fill-acc"/><circle cx="235.4" cy="304.3" r="3.5" class="d-stroke" stroke-width="0.8"/>
    <circle cx="214.5" cy="313.0" r="3.5" class="d-fill-acc"/><circle cx="214.5" cy="313.0" r="3.5" class="d-stroke" stroke-width="0.8"/>
    <circle cx="192.5" cy="318.2" r="3.5" class="d-fill-acc"/><circle cx="192.5" cy="318.2" r="3.5" class="d-stroke" stroke-width="0.8"/>
    <circle cx="170.0" cy="320.0" r="3.5" class="d-fill-acc"/><circle cx="170.0" cy="320.0" r="3.5" class="d-stroke" stroke-width="0.8"/>
    <circle cx="147.5" cy="318.2" r="3.5" class="d-fill-acc"/><circle cx="147.5" cy="318.2" r="3.5" class="d-stroke" stroke-width="0.8"/>
    <circle cx="125.5" cy="313.0" r="3.5" class="d-fill-acc"/><circle cx="125.5" cy="313.0" r="3.5" class="d-stroke" stroke-width="0.8"/>
    <circle cx="104.6" cy="304.3" r="3.5" class="d-fill-acc"/><circle cx="104.6" cy="304.3" r="3.5" class="d-stroke" stroke-width="0.8"/>
    <circle cx="85.4" cy="292.5" r="3.5" class="d-fill-acc"/><circle cx="85.4" cy="292.5" r="3.5" class="d-stroke" stroke-width="0.8"/>
    <circle cx="68.2" cy="277.8" r="3.5" class="d-fill-acc"/><circle cx="68.2" cy="277.8" r="3.5" class="d-stroke" stroke-width="0.8"/>
    <circle cx="53.5" cy="260.6" r="3.5" class="d-fill-acc"/><circle cx="53.5" cy="260.6" r="3.5" class="d-stroke" stroke-width="0.8"/>
    <circle cx="41.7" cy="241.4" r="3.5" class="d-fill-acc"/><circle cx="41.7" cy="241.4" r="3.5" class="d-stroke" stroke-width="0.8"/>
    <circle cx="33.0" cy="220.5" r="3.5" class="d-fill-acc"/><circle cx="33.0" cy="220.5" r="3.5" class="d-stroke" stroke-width="0.8"/>
    <circle cx="27.8" cy="198.5" r="3.5" class="d-fill-acc"/><circle cx="27.8" cy="198.5" r="3.5" class="d-stroke" stroke-width="0.8"/>
    <circle cx="26.0" cy="176.0" r="3.5" class="d-fill-acc"/><circle cx="26.0" cy="176.0" r="3.5" class="d-stroke" stroke-width="0.8"/>
    <circle cx="27.8" cy="153.5" r="3.5" class="d-fill-acc"/><circle cx="27.8" cy="153.5" r="3.5" class="d-stroke" stroke-width="0.8"/>
    <circle cx="33.0" cy="131.5" r="3.5" class="d-fill-acc"/><circle cx="33.0" cy="131.5" r="3.5" class="d-stroke" stroke-width="0.8"/>
    <circle cx="41.7" cy="110.6" r="3.5" class="d-fill-acc"/><circle cx="41.7" cy="110.6" r="3.5" class="d-stroke" stroke-width="0.8"/>
    <circle cx="53.5" cy="91.4" r="3.5" class="d-fill-acc"/><circle cx="53.5" cy="91.4" r="3.5" class="d-stroke" stroke-width="0.8"/>
    <circle cx="68.2" cy="74.2" r="3.5" class="d-fill-acc"/><circle cx="68.2" cy="74.2" r="3.5" class="d-stroke" stroke-width="0.8"/>
    <circle cx="85.4" cy="59.5" r="3.5" class="d-fill-acc"/><circle cx="85.4" cy="59.5" r="3.5" class="d-stroke" stroke-width="0.8"/>
    <circle cx="104.6" cy="47.7" r="3.5" class="d-fill-acc"/><circle cx="104.6" cy="47.7" r="3.5" class="d-stroke" stroke-width="0.8"/>
    <circle cx="125.5" cy="39.0" r="3.5" class="d-fill-acc"/><circle cx="125.5" cy="39.0" r="3.5" class="d-stroke" stroke-width="0.8"/>
    <circle cx="147.5" cy="33.8" r="3.5" class="d-fill-acc"/><circle cx="147.5" cy="33.8" r="3.5" class="d-stroke" stroke-width="0.8"/>
  </g>
  <g style="color:var(--border-firm)" transform="translate(380 0)">
  <text x="170" y="16" class="d-text-acc" text-anchor="middle">generation 60 — 89 edges</text>
    <line x1="170.0" y1="32.0" x2="271.8" y2="277.8" class="d-stroke-acc" stroke-width="0.7" opacity="0.5" style="color:var(--accent)"/>
    <line x1="170.0" y1="32.0" x2="27.8" y2="153.5" class="d-stroke-acc" stroke-width="0.7" opacity="0.5" style="color:var(--accent)"/>
    <line x1="192.5" y1="33.8" x2="147.5" y2="318.2" class="d-stroke-acc" stroke-width="0.7" opacity="0.5" style="color:var(--accent)"/>
    <line x1="192.5" y1="33.8" x2="85.4" y2="292.5" class="d-stroke-acc" stroke-width="0.7" opacity="0.5" style="color:var(--accent)"/>
    <line x1="214.5" y1="39.0" x2="254.6" y2="59.5" class="d-stroke-acc" stroke-width="0.7" opacity="0.5" style="color:var(--accent)"/>
    <line x1="214.5" y1="39.0" x2="298.3" y2="110.6" class="d-stroke-acc" stroke-width="0.7" opacity="0.5" style="color:var(--accent)"/>
    <line x1="214.5" y1="39.0" x2="271.8" y2="277.8" class="d-stroke-acc" stroke-width="0.7" opacity="0.5" style="color:var(--accent)"/>
    <line x1="214.5" y1="39.0" x2="104.6" y2="304.3" class="d-stroke-acc" stroke-width="0.7" opacity="0.5" style="color:var(--accent)"/>
    <line x1="214.5" y1="39.0" x2="53.5" y2="260.6" class="d-stroke-acc" stroke-width="0.7" opacity="0.5" style="color:var(--accent)"/>
    <line x1="214.5" y1="39.0" x2="33.0" y2="131.5" class="d-stroke-acc" stroke-width="0.7" opacity="0.5" style="color:var(--accent)"/>
    <line x1="214.5" y1="39.0" x2="53.5" y2="91.4" class="d-stroke-acc" stroke-width="0.7" opacity="0.5" style="color:var(--accent)"/>
    <line x1="235.4" y1="47.7" x2="235.4" y2="304.3" class="d-stroke-acc" stroke-width="0.7" opacity="0.5" style="color:var(--accent)"/>
    <line x1="235.4" y1="47.7" x2="214.5" y2="313.0" class="d-stroke-acc" stroke-width="0.7" opacity="0.5" style="color:var(--accent)"/>
    <line x1="235.4" y1="47.7" x2="104.6" y2="304.3" class="d-stroke-acc" stroke-width="0.7" opacity="0.5" style="color:var(--accent)"/>
    <line x1="254.6" y1="59.5" x2="271.8" y2="74.2" class="d-stroke-acc" stroke-width="0.7" opacity="0.5" style="color:var(--accent)"/>
    <line x1="254.6" y1="59.5" x2="271.8" y2="277.8" class="d-stroke-acc" stroke-width="0.7" opacity="0.5" style="color:var(--accent)"/>
    <line x1="254.6" y1="59.5" x2="170.0" y2="320.0" class="d-stroke-acc" stroke-width="0.7" opacity="0.5" style="color:var(--accent)"/>
    <line x1="254.6" y1="59.5" x2="27.8" y2="198.5" class="d-stroke-acc" stroke-width="0.7" opacity="0.5" style="color:var(--accent)"/>
    <line x1="254.6" y1="59.5" x2="41.7" y2="110.6" class="d-stroke-acc" stroke-width="0.7" opacity="0.5" style="color:var(--accent)"/>
    <line x1="254.6" y1="59.5" x2="85.4" y2="59.5" class="d-stroke-acc" stroke-width="0.7" opacity="0.5" style="color:var(--accent)"/>
    <line x1="271.8" y1="74.2" x2="312.2" y2="198.5" class="d-stroke-acc" stroke-width="0.7" opacity="0.5" style="color:var(--accent)"/>
    <line x1="271.8" y1="74.2" x2="53.5" y2="260.6" class="d-stroke-acc" stroke-width="0.7" opacity="0.5" style="color:var(--accent)"/>
    <line x1="271.8" y1="74.2" x2="125.5" y2="39.0" class="d-stroke-acc" stroke-width="0.7" opacity="0.5" style="color:var(--accent)"/>
    <line x1="286.5" y1="91.4" x2="298.3" y2="241.4" class="d-stroke-acc" stroke-width="0.7" opacity="0.5" style="color:var(--accent)"/>
    <line x1="286.5" y1="91.4" x2="254.6" y2="292.5" class="d-stroke-acc" stroke-width="0.7" opacity="0.5" style="color:var(--accent)"/>
    <line x1="286.5" y1="91.4" x2="27.8" y2="153.5" class="d-stroke-acc" stroke-width="0.7" opacity="0.5" style="color:var(--accent)"/>
    <line x1="298.3" y1="110.6" x2="307.0" y2="131.5" class="d-stroke-acc" stroke-width="0.7" opacity="0.5" style="color:var(--accent)"/>
    <line x1="298.3" y1="110.6" x2="271.8" y2="277.8" class="d-stroke-acc" stroke-width="0.7" opacity="0.5" style="color:var(--accent)"/>
    <line x1="298.3" y1="110.6" x2="27.8" y2="153.5" class="d-stroke-acc" stroke-width="0.7" opacity="0.5" style="color:var(--accent)"/>
    <line x1="298.3" y1="110.6" x2="33.0" y2="131.5" class="d-stroke-acc" stroke-width="0.7" opacity="0.5" style="color:var(--accent)"/>
    <line x1="298.3" y1="110.6" x2="104.6" y2="47.7" class="d-stroke-acc" stroke-width="0.7" opacity="0.5" style="color:var(--accent)"/>
    <line x1="307.0" y1="131.5" x2="271.8" y2="277.8" class="d-stroke-acc" stroke-width="0.7" opacity="0.5" style="color:var(--accent)"/>
    <line x1="307.0" y1="131.5" x2="27.8" y2="153.5" class="d-stroke-acc" stroke-width="0.7" opacity="0.5" style="color:var(--accent)"/>
    <line x1="312.2" y1="153.5" x2="312.2" y2="198.5" class="d-stroke-acc" stroke-width="0.7" opacity="0.5" style="color:var(--accent)"/>
    <line x1="312.2" y1="153.5" x2="147.5" y2="318.2" class="d-stroke-acc" stroke-width="0.7" opacity="0.5" style="color:var(--accent)"/>
    <line x1="312.2" y1="153.5" x2="125.5" y2="313.0" class="d-stroke-acc" stroke-width="0.7" opacity="0.5" style="color:var(--accent)"/>
    <line x1="312.2" y1="153.5" x2="27.8" y2="198.5" class="d-stroke-acc" stroke-width="0.7" opacity="0.5" style="color:var(--accent)"/>
    <line x1="312.2" y1="153.5" x2="53.5" y2="91.4" class="d-stroke-acc" stroke-width="0.7" opacity="0.5" style="color:var(--accent)"/>
    <line x1="314.0" y1="176.0" x2="286.5" y2="260.6" class="d-stroke-acc" stroke-width="0.7" opacity="0.5" style="color:var(--accent)"/>
    <line x1="314.0" y1="176.0" x2="271.8" y2="277.8" class="d-stroke-acc" stroke-width="0.7" opacity="0.5" style="color:var(--accent)"/>
    <line x1="312.2" y1="198.5" x2="53.5" y2="91.4" class="d-stroke-acc" stroke-width="0.7" opacity="0.5" style="color:var(--accent)"/>
    <line x1="307.0" y1="220.5" x2="271.8" y2="277.8" class="d-stroke-acc" stroke-width="0.7" opacity="0.5" style="color:var(--accent)"/>
    <line x1="307.0" y1="220.5" x2="170.0" y2="320.0" class="d-stroke-acc" stroke-width="0.7" opacity="0.5" style="color:var(--accent)"/>
    <line x1="298.3" y1="241.4" x2="271.8" y2="277.8" class="d-stroke-acc" stroke-width="0.7" opacity="0.5" style="color:var(--accent)"/>
    <line x1="298.3" y1="241.4" x2="254.6" y2="292.5" class="d-stroke-acc" stroke-width="0.7" opacity="0.5" style="color:var(--accent)"/>
    <line x1="298.3" y1="241.4" x2="214.5" y2="313.0" class="d-stroke-acc" stroke-width="0.7" opacity="0.5" style="color:var(--accent)"/>
    <line x1="298.3" y1="241.4" x2="147.5" y2="318.2" class="d-stroke-acc" stroke-width="0.7" opacity="0.5" style="color:var(--accent)"/>
    <line x1="298.3" y1="241.4" x2="104.6" y2="304.3" class="d-stroke-acc" stroke-width="0.7" opacity="0.5" style="color:var(--accent)"/>
    <line x1="298.3" y1="241.4" x2="68.2" y2="277.8" class="d-stroke-acc" stroke-width="0.7" opacity="0.5" style="color:var(--accent)"/>
    <line x1="298.3" y1="241.4" x2="53.5" y2="260.6" class="d-stroke-acc" stroke-width="0.7" opacity="0.5" style="color:var(--accent)"/>
    <line x1="286.5" y1="260.6" x2="271.8" y2="277.8" class="d-stroke-acc" stroke-width="0.7" opacity="0.5" style="color:var(--accent)"/>
    <line x1="286.5" y1="260.6" x2="147.5" y2="318.2" class="d-stroke-acc" stroke-width="0.7" opacity="0.5" style="color:var(--accent)"/>
    <line x1="286.5" y1="260.6" x2="85.4" y2="59.5" class="d-stroke-acc" stroke-width="0.7" opacity="0.5" style="color:var(--accent)"/>
    <line x1="271.8" y1="277.8" x2="254.6" y2="292.5" class="d-stroke-acc" stroke-width="0.7" opacity="0.5" style="color:var(--accent)"/>
    <line x1="271.8" y1="277.8" x2="235.4" y2="304.3" class="d-stroke-acc" stroke-width="0.7" opacity="0.5" style="color:var(--accent)"/>
    <line x1="271.8" y1="277.8" x2="125.5" y2="313.0" class="d-stroke-acc" stroke-width="0.7" opacity="0.5" style="color:var(--accent)"/>
    <line x1="271.8" y1="277.8" x2="41.7" y2="241.4" class="d-stroke-acc" stroke-width="0.7" opacity="0.5" style="color:var(--accent)"/>
    <line x1="271.8" y1="277.8" x2="27.8" y2="153.5" class="d-stroke-acc" stroke-width="0.7" opacity="0.5" style="color:var(--accent)"/>
    <line x1="271.8" y1="277.8" x2="33.0" y2="131.5" class="d-stroke-acc" stroke-width="0.7" opacity="0.5" style="color:var(--accent)"/>
    <line x1="271.8" y1="277.8" x2="85.4" y2="59.5" class="d-stroke-acc" stroke-width="0.7" opacity="0.5" style="color:var(--accent)"/>
    <line x1="254.6" y1="292.5" x2="170.0" y2="320.0" class="d-stroke-acc" stroke-width="0.7" opacity="0.5" style="color:var(--accent)"/>
    <line x1="235.4" y1="304.3" x2="192.5" y2="318.2" class="d-stroke-acc" stroke-width="0.7" opacity="0.5" style="color:var(--accent)"/>
    <line x1="235.4" y1="304.3" x2="41.7" y2="241.4" class="d-stroke-acc" stroke-width="0.7" opacity="0.5" style="color:var(--accent)"/>
    <line x1="214.5" y1="313.0" x2="85.4" y2="292.5" class="d-stroke-acc" stroke-width="0.7" opacity="0.5" style="color:var(--accent)"/>
    <line x1="214.5" y1="313.0" x2="41.7" y2="241.4" class="d-stroke-acc" stroke-width="0.7" opacity="0.5" style="color:var(--accent)"/>
    <line x1="214.5" y1="313.0" x2="33.0" y2="220.5" class="d-stroke-acc" stroke-width="0.7" opacity="0.5" style="color:var(--accent)"/>
    <line x1="214.5" y1="313.0" x2="53.5" y2="91.4" class="d-stroke-acc" stroke-width="0.7" opacity="0.5" style="color:var(--accent)"/>
    <line x1="192.5" y1="318.2" x2="33.0" y2="220.5" class="d-stroke-acc" stroke-width="0.7" opacity="0.5" style="color:var(--accent)"/>
    <line x1="170.0" y1="320.0" x2="104.6" y2="304.3" class="d-stroke-acc" stroke-width="0.7" opacity="0.5" style="color:var(--accent)"/>
    <line x1="147.5" y1="318.2" x2="125.5" y2="313.0" class="d-stroke-acc" stroke-width="0.7" opacity="0.5" style="color:var(--accent)"/>
    <line x1="147.5" y1="318.2" x2="41.7" y2="241.4" class="d-stroke-acc" stroke-width="0.7" opacity="0.5" style="color:var(--accent)"/>
    <line x1="147.5" y1="318.2" x2="27.8" y2="198.5" class="d-stroke-acc" stroke-width="0.7" opacity="0.5" style="color:var(--accent)"/>
    <line x1="125.5" y1="313.0" x2="33.0" y2="220.5" class="d-stroke-acc" stroke-width="0.7" opacity="0.5" style="color:var(--accent)"/>
    <line x1="125.5" y1="313.0" x2="26.0" y2="176.0" class="d-stroke-acc" stroke-width="0.7" opacity="0.5" style="color:var(--accent)"/>
    <line x1="104.6" y1="304.3" x2="26.0" y2="176.0" class="d-stroke-acc" stroke-width="0.7" opacity="0.5" style="color:var(--accent)"/>
    <line x1="85.4" y1="292.5" x2="41.7" y2="241.4" class="d-stroke-acc" stroke-width="0.7" opacity="0.5" style="color:var(--accent)"/>
    <line x1="85.4" y1="292.5" x2="33.0" y2="131.5" class="d-stroke-acc" stroke-width="0.7" opacity="0.5" style="color:var(--accent)"/>
    <line x1="85.4" y1="292.5" x2="41.7" y2="110.6" class="d-stroke-acc" stroke-width="0.7" opacity="0.5" style="color:var(--accent)"/>
    <line x1="85.4" y1="292.5" x2="68.2" y2="74.2" class="d-stroke-acc" stroke-width="0.7" opacity="0.5" style="color:var(--accent)"/>
    <line x1="85.4" y1="292.5" x2="104.6" y2="47.7" class="d-stroke-acc" stroke-width="0.7" opacity="0.5" style="color:var(--accent)"/>
    <line x1="68.2" y1="277.8" x2="53.5" y2="260.6" class="d-stroke-acc" stroke-width="0.7" opacity="0.5" style="color:var(--accent)"/>
    <line x1="68.2" y1="277.8" x2="53.5" y2="91.4" class="d-stroke-acc" stroke-width="0.7" opacity="0.5" style="color:var(--accent)"/>
    <line x1="53.5" y1="260.6" x2="33.0" y2="220.5" class="d-stroke-acc" stroke-width="0.7" opacity="0.5" style="color:var(--accent)"/>
    <line x1="53.5" y1="260.6" x2="53.5" y2="91.4" class="d-stroke-acc" stroke-width="0.7" opacity="0.5" style="color:var(--accent)"/>
    <line x1="27.8" y1="198.5" x2="26.0" y2="176.0" class="d-stroke-acc" stroke-width="0.7" opacity="0.5" style="color:var(--accent)"/>
    <line x1="27.8" y1="153.5" x2="147.5" y2="33.8" class="d-stroke-acc" stroke-width="0.7" opacity="0.5" style="color:var(--accent)"/>
    <line x1="41.7" y1="110.6" x2="125.5" y2="39.0" class="d-stroke-acc" stroke-width="0.7" opacity="0.5" style="color:var(--accent)"/>
    <line x1="68.2" y1="74.2" x2="85.4" y2="59.5" class="d-stroke-acc" stroke-width="0.7" opacity="0.5" style="color:var(--accent)"/>
    <line x1="104.6" y1="47.7" x2="125.5" y2="39.0" class="d-stroke-acc" stroke-width="0.7" opacity="0.5" style="color:var(--accent)"/>
    <circle cx="170.0" cy="32.0" r="3.5" class="d-fill-acc"/><circle cx="170.0" cy="32.0" r="3.5" class="d-stroke" stroke-width="0.8"/>
    <circle cx="192.5" cy="33.8" r="3.5" class="d-fill-acc"/><circle cx="192.5" cy="33.8" r="3.5" class="d-stroke" stroke-width="0.8"/>
    <circle cx="214.5" cy="39.0" r="3.5" class="d-fill-acc"/><circle cx="214.5" cy="39.0" r="3.5" class="d-stroke" stroke-width="0.8"/>
    <circle cx="235.4" cy="47.7" r="3.5" class="d-fill-acc"/><circle cx="235.4" cy="47.7" r="3.5" class="d-stroke" stroke-width="0.8"/>
    <circle cx="254.6" cy="59.5" r="3.5" class="d-fill-acc"/><circle cx="254.6" cy="59.5" r="3.5" class="d-stroke" stroke-width="0.8"/>
    <circle cx="271.8" cy="74.2" r="3.5" class="d-fill-acc"/><circle cx="271.8" cy="74.2" r="3.5" class="d-stroke" stroke-width="0.8"/>
    <circle cx="286.5" cy="91.4" r="3.5" class="d-fill-acc"/><circle cx="286.5" cy="91.4" r="3.5" class="d-stroke" stroke-width="0.8"/>
    <circle cx="298.3" cy="110.6" r="3.5" class="d-fill-acc"/><circle cx="298.3" cy="110.6" r="3.5" class="d-stroke" stroke-width="0.8"/>
    <circle cx="307.0" cy="131.5" r="3.5" class="d-fill-acc"/><circle cx="307.0" cy="131.5" r="3.5" class="d-stroke" stroke-width="0.8"/>
    <circle cx="312.2" cy="153.5" r="3.5" class="d-fill-acc"/><circle cx="312.2" cy="153.5" r="3.5" class="d-stroke" stroke-width="0.8"/>
    <circle cx="314.0" cy="176.0" r="3.5" class="d-fill-acc"/><circle cx="314.0" cy="176.0" r="3.5" class="d-stroke" stroke-width="0.8"/>
    <circle cx="312.2" cy="198.5" r="3.5" class="d-fill-acc"/><circle cx="312.2" cy="198.5" r="3.5" class="d-stroke" stroke-width="0.8"/>
    <circle cx="307.0" cy="220.5" r="3.5" class="d-fill-acc"/><circle cx="307.0" cy="220.5" r="3.5" class="d-stroke" stroke-width="0.8"/>
    <circle cx="298.3" cy="241.4" r="3.5" class="d-fill-acc"/><circle cx="298.3" cy="241.4" r="3.5" class="d-stroke" stroke-width="0.8"/>
    <circle cx="286.5" cy="260.6" r="3.5" class="d-fill-acc"/><circle cx="286.5" cy="260.6" r="3.5" class="d-stroke" stroke-width="0.8"/>
    <circle cx="271.8" cy="277.8" r="3.5" class="d-fill-acc"/><circle cx="271.8" cy="277.8" r="3.5" class="d-stroke" stroke-width="0.8"/>
    <circle cx="254.6" cy="292.5" r="3.5" class="d-fill-acc"/><circle cx="254.6" cy="292.5" r="3.5" class="d-stroke" stroke-width="0.8"/>
    <circle cx="235.4" cy="304.3" r="3.5" class="d-fill-acc"/><circle cx="235.4" cy="304.3" r="3.5" class="d-stroke" stroke-width="0.8"/>
    <circle cx="214.5" cy="313.0" r="3.5" class="d-fill-acc"/><circle cx="214.5" cy="313.0" r="3.5" class="d-stroke" stroke-width="0.8"/>
    <circle cx="192.5" cy="318.2" r="3.5" class="d-fill-acc"/><circle cx="192.5" cy="318.2" r="3.5" class="d-stroke" stroke-width="0.8"/>
    <circle cx="170.0" cy="320.0" r="3.5" class="d-fill-acc"/><circle cx="170.0" cy="320.0" r="3.5" class="d-stroke" stroke-width="0.8"/>
    <circle cx="147.5" cy="318.2" r="3.5" class="d-fill-acc"/><circle cx="147.5" cy="318.2" r="3.5" class="d-stroke" stroke-width="0.8"/>
    <circle cx="125.5" cy="313.0" r="3.5" class="d-fill-acc"/><circle cx="125.5" cy="313.0" r="3.5" class="d-stroke" stroke-width="0.8"/>
    <circle cx="104.6" cy="304.3" r="3.5" class="d-fill-acc"/><circle cx="104.6" cy="304.3" r="3.5" class="d-stroke" stroke-width="0.8"/>
    <circle cx="85.4" cy="292.5" r="3.5" class="d-fill-acc"/><circle cx="85.4" cy="292.5" r="3.5" class="d-stroke" stroke-width="0.8"/>
    <circle cx="68.2" cy="277.8" r="3.5" class="d-fill-acc"/><circle cx="68.2" cy="277.8" r="3.5" class="d-stroke" stroke-width="0.8"/>
    <circle cx="53.5" cy="260.6" r="3.5" class="d-fill-acc"/><circle cx="53.5" cy="260.6" r="3.5" class="d-stroke" stroke-width="0.8"/>
    <circle cx="41.7" cy="241.4" r="3.5" class="d-fill-acc"/><circle cx="41.7" cy="241.4" r="3.5" class="d-stroke" stroke-width="0.8"/>
    <circle cx="33.0" cy="220.5" r="3.5" class="d-fill-acc"/><circle cx="33.0" cy="220.5" r="3.5" class="d-stroke" stroke-width="0.8"/>
    <circle cx="27.8" cy="198.5" r="3.5" class="d-fill-acc"/><circle cx="27.8" cy="198.5" r="3.5" class="d-stroke" stroke-width="0.8"/>
    <circle cx="26.0" cy="176.0" r="3.5" class="d-fill-acc"/><circle cx="26.0" cy="176.0" r="3.5" class="d-stroke" stroke-width="0.8"/>
    <circle cx="27.8" cy="153.5" r="3.5" class="d-fill-acc"/><circle cx="27.8" cy="153.5" r="3.5" class="d-stroke" stroke-width="0.8"/>
    <circle cx="33.0" cy="131.5" r="3.5" class="d-fill-acc"/><circle cx="33.0" cy="131.5" r="3.5" class="d-stroke" stroke-width="0.8"/>
    <circle cx="41.7" cy="110.6" r="3.5" class="d-fill-acc"/><circle cx="41.7" cy="110.6" r="3.5" class="d-stroke" stroke-width="0.8"/>
    <circle cx="53.5" cy="91.4" r="3.5" class="d-fill-acc"/><circle cx="53.5" cy="91.4" r="3.5" class="d-stroke" stroke-width="0.8"/>
    <circle cx="68.2" cy="74.2" r="3.5" class="d-fill-acc"/><circle cx="68.2" cy="74.2" r="3.5" class="d-stroke" stroke-width="0.8"/>
    <circle cx="85.4" cy="59.5" r="3.5" class="d-fill-acc"/><circle cx="85.4" cy="59.5" r="3.5" class="d-stroke" stroke-width="0.8"/>
    <circle cx="104.6" cy="47.7" r="3.5" class="d-fill-acc"/><circle cx="104.6" cy="47.7" r="3.5" class="d-stroke" stroke-width="0.8"/>
    <circle cx="125.5" cy="39.0" r="3.5" class="d-fill-acc"/><circle cx="125.5" cy="39.0" r="3.5" class="d-stroke" stroke-width="0.8"/>
    <circle cx="147.5" cy="33.8" r="3.5" class="d-fill-acc"/><circle cx="147.5" cy="33.8" r="3.5" class="d-stroke" stroke-width="0.8"/>
  </g>
</svg>
